<svg xmlns="http://www.w3.org/2000/svg" width="258" height="60" viewBox="0 0 258 60" fill="none"><path d="M93.9314 41.6629V27.5548C93.9314 24.7574 93.1884 23.1431 90.4367 23.1431C87.3354 23.1431 85.981 26.4191 85.981 29.2578V41.6629H80.5645V27.5548C80.5645 24.7574 79.8215 23.1431 77.0698 23.1431C73.9694 23.1431 72.5711 26.4191 72.5711 29.2578V41.6629H67.1555V18.9483H71.6981L72.1346 21.9617C73.4011 19.8652 75.5846 18.38 78.5989 18.38C81.788 18.38 83.9715 19.7783 85.1071 22.0935C86.4615 19.7352 88.9075 18.38 91.9658 18.38C96.814 18.38 99.347 21.613 99.347 26.3295V41.6611H93.9314V41.6629Z" fill="white"></path><path d="M120.707 42.0116C118.348 42.0116 117.038 40.5264 116.864 38.8225C115.815 40.6573 113.194 42.2304 109.962 42.2304C104.546 42.2304 101.751 38.8225 101.751 35.1117C101.751 30.787 105.114 28.2961 109.439 27.9904L116.122 27.5109V26.1117C116.122 23.9731 115.379 22.5309 112.277 22.5309C109.743 22.5309 108.258 23.6675 108.128 25.7631H102.843C103.148 20.6531 107.21 18.3818 112.277 18.3818C116.164 18.3818 119.485 19.6053 120.794 23.0123C121.363 24.4526 121.449 26.0687 121.449 27.5987V36.0278C121.449 37.0765 121.8 37.4691 122.717 37.4691C123.067 37.4691 123.416 37.3821 123.416 37.3821V41.4013C122.498 41.7929 122.019 42.0116 120.707 42.0116ZM116.122 31.573L110.356 32.0096C108.695 32.1404 107.079 33.1443 107.079 34.98C107.079 36.7269 108.608 37.8195 110.312 37.8195C113.719 37.8195 116.121 35.9848 116.121 32.62V31.573H116.122Z" fill="white"></path><path d="M137.175 23.7975C133.332 23.7975 131.323 26.5492 131.323 30.2187V41.663H125.818V18.9483H130.45L130.929 22.3562C131.978 19.7353 134.685 18.6427 137.35 18.6427C137.917 18.6427 138.486 18.6857 139.053 18.7745V24.0153C138.442 23.8844 137.787 23.7975 137.175 23.7975Z" fill="white"></path><path d="M141.459 15.8049V10.1697H146.996V15.8049H141.459ZM141.459 41.6629V18.6435H147.005V41.6629H141.459Z" fill="white"></path><path d="M167.973 38.6916C166.402 40.6142 163.475 42.2303 160.023 42.2303C156.572 42.2303 153.647 40.6142 152.072 38.6916C150.369 36.5521 149.408 34.149 149.408 30.3056C149.408 26.4621 150.369 24.06 152.072 21.9187C153.646 19.9969 156.572 18.3809 160.023 18.3809C163.475 18.3809 166.401 19.9969 167.973 21.9187C169.676 24.06 170.637 26.4621 170.637 30.3056C170.637 34.149 169.677 36.5521 167.973 38.6916ZM163.476 24.5834C162.732 23.7974 161.51 23.1421 160.024 23.1421C158.54 23.1421 157.315 23.7974 156.573 24.5834C155.263 26.0238 154.957 28.1642 154.957 30.3056C154.957 32.446 155.263 34.5864 156.573 36.0268C157.315 36.8129 158.539 37.4681 160.024 37.4681C161.51 37.4681 162.732 36.8138 163.476 36.0268C164.786 34.5864 165.091 32.446 165.091 30.3056C165.091 28.1651 164.786 26.0247 163.476 24.5834Z" fill="white"></path><path d="M186.947 41.6629V27.7277C186.947 25.0648 186.073 23.4487 183.189 23.4487C181.268 23.4487 180.001 24.6713 179.258 26.3313C178.473 28.123 178.517 30.4812 178.517 32.403V41.6629H173.058V18.9482H177.644L178.036 21.8756C179.391 19.4726 182.099 18.3809 184.72 18.3809C189.568 18.3809 192.406 21.7887 192.406 26.506V41.6629H186.947Z" fill="white"></path><path d="M215.566 32.0086H200.365C200.321 33.7564 200.933 35.4164 202.025 36.4642C202.811 37.2055 203.904 37.8616 205.389 37.8616C206.961 37.8616 207.922 37.5559 208.709 36.7699C209.19 36.2894 209.584 35.6781 209.802 34.8481H215.042C214.912 36.2025 213.994 37.9924 213.122 39.0411C211.197 41.3115 208.361 42.2294 205.476 42.2294C202.377 42.2294 200.105 41.1377 198.315 39.4328C196.042 37.2512 194.82 34.0612 194.82 30.3486C194.82 26.7239 195.911 23.4917 198.095 21.2643C199.801 19.5156 202.244 18.3809 205.346 18.3809C208.709 18.3809 211.766 19.7352 213.644 22.5757C215.306 25.0648 215.698 27.6408 215.611 30.4812C215.612 30.4812 215.566 31.5282 215.566 32.0086ZM208.754 24.06C208.011 23.273 206.874 22.7486 205.301 22.7486C203.644 22.7486 202.289 23.4478 201.503 24.4965C200.717 25.5004 200.366 26.5482 200.322 28.0343H210.151C210.107 26.3304 209.624 25.0208 208.754 24.06Z" fill="white"></path><path d="M224.894 41.9677C220.307 41.9677 218.037 39.3469 218.037 34.98V23.4488V18.9492V13.1841L223.496 11.8297V18.9483H229.219V23.4479H223.496V34.4978C223.496 36.2456 224.281 36.9878 226.029 36.9878C227.166 36.9878 228.082 36.9447 229.568 36.77V41.3564C228.038 41.749 226.509 41.9677 224.894 41.9677Z" fill="white"></path><path d="M252.214 32.0086H237.013C236.97 33.7564 237.581 35.4164 238.674 36.4642C239.461 37.2055 240.551 37.8616 242.038 37.8616C243.608 37.8616 244.571 37.5559 245.358 36.7699C245.837 36.2894 246.231 35.6781 246.45 34.8481H251.691C251.558 36.2025 250.642 37.9924 249.769 39.0411C247.847 41.3115 245.01 42.2294 242.125 42.2294C239.023 42.2294 236.752 41.1377 234.96 39.4328C232.689 37.2512 231.468 34.0612 231.468 30.3486C231.468 26.7239 232.56 23.4917 234.743 21.2643C236.446 19.5156 238.892 18.3809 241.993 18.3809C245.358 18.3809 248.414 19.7352 250.292 22.5757C251.953 25.0648 252.344 27.6408 252.257 30.4812C252.257 30.4812 252.214 31.5282 252.214 32.0086ZM245.402 24.06C244.658 23.273 243.522 22.7486 241.95 22.7486C240.29 22.7486 238.935 23.4478 238.15 24.4965C237.364 25.5004 237.014 26.5482 236.971 28.0343H246.799C246.756 26.3304 246.275 25.0208 245.402 24.06Z" fill="white"></path><path d="M254.352 19.4503V21.1426H254.003V19.4503H253.432V19.1339H254.923V19.4503H254.352ZM256.896 21.1426V19.4978L256.351 21.0915H256.097L255.551 19.5041V21.1426H255.205V19.1339H255.756L256.232 20.5806L256.71 19.1339H257.246V21.1426H256.896V21.1426Z" fill="white"></path><path d="M25.8321 13.2934C27.6578 13.2934 29.1378 11.8134 29.1378 9.98777C29.1378 8.16212 27.6578 6.68213 25.8321 6.68213C24.0065 6.68213 22.5265 8.16212 22.5265 9.98777C22.5265 11.8134 24.0065 13.2934 25.8321 13.2934Z" fill="white"></path><path d="M25.8321 29.1378C27.6578 29.1378 29.1378 27.6578 29.1378 25.8321C29.1378 24.0065 27.6578 22.5265 25.8321 22.5265C24.0065 22.5265 22.5265 24.0065 22.5265 25.8321C22.5265 27.6578 24.0065 29.1378 25.8321 29.1378Z" fill="white"></path><path d="M25.832 44.4533C27.3656 44.4533 28.6088 43.2101 28.6088 41.6765C28.6088 40.1429 27.3656 38.8997 25.832 38.8997C24.2984 38.8997 23.0552 40.1429 23.0552 41.6765C23.0552 43.2101 24.2984 44.4533 25.832 44.4533Z" fill="white"></path><path d="M17.9103 20.8028C19.5077 20.8028 20.8027 19.5078 20.8027 17.9104C20.8027 16.3129 19.5077 15.0179 17.9103 15.0179C16.3128 15.0179 15.0178 16.3129 15.0178 17.9104C15.0178 19.5078 16.3128 20.8028 17.9103 20.8028Z" fill="white"></path><path d="M17.9103 36.6472C19.5077 36.6472 20.8027 35.3522 20.8027 33.7547C20.8027 32.1573 19.5077 30.8623 17.9103 30.8623C16.3128 30.8623 15.0178 32.1573 15.0178 33.7547C15.0178 35.3522 16.3128 36.6472 17.9103 36.6472Z" fill="white"></path><path d="M9.98766 12.467C11.3569 12.467 12.4669 11.357 12.4669 9.98778C12.4669 8.61854 11.3569 7.50854 9.98766 7.50854C8.61841 7.50854 7.50842 8.61854 7.50842 9.98778C7.50842 11.357 8.61841 12.467 9.98766 12.467Z" fill="white"></path><path d="M9.98766 28.3122C11.3569 28.3122 12.4669 27.2022 12.4669 25.833C12.4669 24.4637 11.3569 23.3538 9.98766 23.3538C8.61841 23.3538 7.50842 24.4637 7.50842 25.833C7.50842 27.2022 8.61841 28.3122 9.98766 28.3122Z" fill="white"></path><path d="M9.98766 44.1556C11.3569 44.1556 12.4669 43.0456 12.4669 41.6764C12.4669 40.3071 11.3569 39.1971 9.98766 39.1971C8.61841 39.1971 7.50842 40.3071 7.50842 41.6764C7.50842 43.0456 8.61841 44.1556 9.98766 44.1556Z" fill="white"></path><path d="M9.98766 60C11.3569 60 12.4669 58.89 12.4669 57.5207C12.4669 56.1515 11.3569 55.0415 9.98766 55.0415C8.61841 55.0415 7.50842 56.1515 7.50842 57.5207C7.50842 58.89 8.61841 60 9.98766 60Z" fill="white"></path><path d="M2.06603 4.13206C3.20707 4.13206 4.13206 3.20707 4.13206 2.06603C4.13206 0.924993 3.20707 0 2.06603 0C0.924993 0 0 0.924993 0 2.06603C0 3.20707 0.924993 4.13206 2.06603 4.13206Z" fill="white"></path><path d="M2.06603 19.9764C3.20707 19.9764 4.13206 19.0514 4.13206 17.9104C4.13206 16.7694 3.20707 15.8444 2.06603 15.8444C0.924993 15.8444 0 16.7694 0 17.9104C0 19.0514 0.924993 19.9764 2.06603 19.9764Z" fill="white"></path><path d="M2.06603 35.8208C3.20707 35.8208 4.13206 34.8958 4.13206 33.7548C4.13206 32.6137 3.20707 31.6887 2.06603 31.6887C0.924993 31.6887 0 32.6137 0 33.7548C0 34.8958 0.924993 35.8208 2.06603 35.8208Z" fill="white"></path><path d="M2.06603 51.665C3.20707 51.665 4.13206 50.74 4.13206 49.599C4.13206 48.458 3.20707 47.533 2.06603 47.533C0.924993 47.533 0 48.458 0 49.599C0 50.74 0.924993 51.665 2.06603 51.665Z" fill="white"></path><path d="M33.7537 20.8019C35.3507 20.8019 36.6453 19.5073 36.6453 17.9103C36.6453 16.3134 35.3507 15.0188 33.7537 15.0188C32.1568 15.0188 30.8622 16.3134 30.8622 17.9103C30.8622 19.5073 32.1568 20.8019 33.7537 20.8019Z" fill="white"></path><path d="M33.7537 36.6462C35.3507 36.6462 36.6453 35.3517 36.6453 33.7547C36.6453 32.1577 35.3507 30.8632 33.7537 30.8632C32.1568 30.8632 30.8622 32.1577 30.8622 33.7547C30.8622 35.3517 32.1568 36.6462 33.7537 36.6462Z" fill="white"></path><path d="M41.6764 12.467C43.0456 12.467 44.1556 11.357 44.1556 9.98778C44.1556 8.61854 43.0456 7.50854 41.6764 7.50854C40.3071 7.50854 39.1971 8.61854 39.1971 9.98778C39.1971 11.357 40.3071 12.467 41.6764 12.467Z" fill="white"></path><path d="M41.6764 28.3122C43.0456 28.3122 44.1556 27.2022 44.1556 25.833C44.1556 24.4637 43.0456 23.3538 41.6764 23.3538C40.3071 23.3538 39.1971 24.4637 39.1971 25.833C39.1971 27.2022 40.3071 28.3122 41.6764 28.3122Z" fill="white"></path><path d="M41.6764 44.1556C43.0456 44.1556 44.1556 43.0456 44.1556 41.6764C44.1556 40.3071 43.0456 39.1971 41.6764 39.1971C40.3071 39.1971 39.1971 40.3071 39.1971 41.6764C39.1971 43.0456 40.3071 44.1556 41.6764 44.1556Z" fill="white"></path><path d="M41.6764 60C43.0456 60 44.1556 58.89 44.1556 57.5207C44.1556 56.1515 43.0456 55.0415 41.6764 55.0415C40.3071 55.0415 39.1971 56.1515 39.1971 57.5207C39.1971 58.89 40.3071 60 41.6764 60Z" fill="white"></path><path d="M49.5981 4.13206C50.7392 4.13206 51.6642 3.20707 51.6642 2.06603C51.6642 0.924993 50.7392 0 49.5981 0C48.4571 0 47.5321 0.924993 47.5321 2.06603C47.5321 3.20707 48.4571 4.13206 49.5981 4.13206Z" fill="white"></path><path d="M49.5981 19.9764C50.7392 19.9764 51.6642 19.0514 51.6642 17.9104C51.6642 16.7694 50.7392 15.8444 49.5981 15.8444C48.4571 15.8444 47.5321 16.7694 47.5321 17.9104C47.5321 19.0514 48.4571 19.9764 49.5981 19.9764Z" fill="white"></path><path d="M49.5981 35.8208C50.7392 35.8208 51.6642 34.8958 51.6642 33.7548C51.6642 32.6137 50.7392 31.6887 49.5981 31.6887C48.4571 31.6887 47.5321 32.6137 47.5321 33.7548C47.5321 34.8958 48.4571 35.8208 49.5981 35.8208Z" fill="white"></path><path d="M49.5981 51.665C50.7392 51.665 51.6642 50.74 51.6642 49.599C51.6642 48.458 50.7392 47.533 49.5981 47.533C48.4571 47.533 47.5321 48.458 47.5321 49.599C47.5321 50.74 48.4571 51.665 49.5981 51.665Z" fill="white"></path><path d="M2.16538 2.06604H1.9646V49.599H2.16538V2.06604Z" fill="white"></path><path d="M10.0881 9.98779H9.88733V57.5208H10.0881V9.98779Z" fill="white"></path><path d="M18.0097 17.3824H17.809V34.2163H18.0097V17.3824Z" fill="white"></path><path d="M25.9325 9.45984H25.7317V41.6764H25.9325V9.45984Z" fill="white"></path><path d="M33.8541 17.9104H33.6533V33.7547H33.8541V17.9104Z" fill="white"></path><path d="M49.6985 2.06604H49.4977V49.599H49.6985V2.06604Z" fill="white"></path><path d="M41.7768 9.98779H41.576V57.5208H41.7768V9.98779Z" fill="white"></path></svg>